<?xml version="1.0" standalone="no"?><!DOCTYPE svg PUBLIC "-//W3C//DTD SVG 1.1//EN" "http://www.w3.org/Graphics/SVG/1.1/DTD/svg11.dtd"><svg t="1575358416946" class="icon" viewBox="0 0 1024 1024" version="1.1" xmlns="http://www.w3.org/2000/svg" p-id="33087" xmlns:xlink="http://www.w3.org/1999/xlink" width="200" height="200"><defs><style type="text/css"></style></defs><path d="M974.336569 333.027556l-403.683556 206.506666a56.888889 56.888889 0 0 0-30.947555 50.631111v391.907556a34.133333 34.133333 0 0 0 49.664 30.378667l403.683555-206.563556a56.888889 56.888889 0 0 0 30.947556-50.631111V363.406222a34.133333 34.133333 0 0 0-49.664-30.378666z" p-id="33088" fill="#d4237a"></path><path d="M55.865458 755.882667l372.622222 190.634666v-356.920889L55.865458 398.904889v356.977778zM40.676124 328.362667l418.304 214.072889c15.530667 7.964444 25.315556 23.950222 25.315556 41.472v408.291555a27.875556 27.875556 0 0 1-40.618667 24.860445L25.316124 802.986667A46.535111 46.535111 0 0 1 0.000569 761.571556V353.223111a27.875556 27.875556 0 0 1 40.675555-24.860444zM124.587236 254.748444l386.958222 194.56L898.845013 247.523556l-389.12-185.457778L124.587236 254.805333zM529.636124 9.784889l443.733334 211.512889a27.875556 27.875556 0 0 1 0.910222 49.948444L533.106347 501.020444a46.535111 46.535111 0 0 1-42.382223 0.284445L49.778347 279.665778a27.875556 27.875556 0 0 1 0-49.948445L488.789902 10.126222A46.535111 46.535111 0 0 1 529.636124 9.841778z" p-id="33089" fill="#d4237a"></path></svg>