<?xml version="1.0" standalone="no"?><!DOCTYPE svg PUBLIC "-//W3C//DTD SVG 1.1//EN" "http://www.w3.org/Graphics/SVG/1.1/DTD/svg11.dtd"><svg t="1575357482268" class="icon" viewBox="0 0 1024 1024" version="1.1" xmlns="http://www.w3.org/2000/svg" p-id="19691" xmlns:xlink="http://www.w3.org/1999/xlink" width="200" height="200"><defs><style type="text/css"></style></defs><path d="M498.82904 0C291.95404 0 124.20404 167.75 124.20404 374.75c0 207 167.75 374.75 374.75 374.75 207 0 374.75-167.75 374.75-374.75C873.57904 167.75 705.82904 0 498.82904 0z m0 699.5c-179.375 0-324.75-145.375-324.75-324.75C174.20404 195.5 319.45404 50 498.82904 50s324.75 145.375 324.75 324.75c0 179.25-145.25 324.75-324.75 324.75z m0 0" fill="#f4ea2a" p-id="19692"></path><path d="M731.95404 624.625l95.375 184.75c-38.75-15.125-83.5-14.375-123.25 6.25-39.875 20.5-66.375 56.5-76.5 96.875L532.20404 727.625l-33.25 17.25L639.57904 1017.5l3.375 6.5 33.25-17.25-3.375-6.5c-28.5-55.125-6.875-123 48.375-151.375 55.125-28.5 123-6.875 151.5 48.375l3.375 6.5 33.25-17.125-3.375-6.5L765.32904 607.5l-33.375 17.125z m0 0M250.07904 655L170.45404 809.375c38.75-15.125 83.5-14.375 123.25 6.25 39.75 20.5 66.375 56.5 76.5 96.875l85.375-165.5 40.875 2.375L358.20404 1017.5l-3.375 6.5-33.25-17.25 3.375-6.5c28.5-55.125 6.875-123-48.375-151.375-55.125-28.5-123-6.875-151.5 48.375l-3.375 6.375-33.25-17.125 3.375-6.5L222.20404 627.5l27.875 27.5z m0 0" fill="#f4ea2a" p-id="19693"></path></svg>